<mxfile host="app.diagrams.net" agent="Mozilla/5.0 (Macintosh; Intel Mac OS X 10_15_7) AppleWebKit/537.36 (KHTML, like Gecko) Chrome/131.0.0.0 Safari/537.36" version="26.0.4">
  <diagram name="第 1 页" id="RbE0zZEDlsMbj9A2anAU">
    <mxGraphModel dx="968" dy="1754" grid="1" gridSize="10" guides="1" tooltips="1" connect="1" arrows="1" fold="1" page="1" pageScale="1" pageWidth="827" pageHeight="1169" math="0" shadow="0">
      <root>
        <mxCell id="0" />
        <mxCell id="1" parent="0" />
        <mxCell id="zzDzum1lHBQrz0rzf7VX-42" value="" style="rounded=0;whiteSpace=wrap;html=1;" parent="1" vertex="1">
          <mxGeometry x="460" y="100" width="120" height="400" as="geometry" />
        </mxCell>
        <mxCell id="zzDzum1lHBQrz0rzf7VX-5" value="" style="rounded=0;whiteSpace=wrap;html=1;" parent="1" vertex="1">
          <mxGeometry x="230" y="100" width="120" height="60" as="geometry" />
        </mxCell>
        <mxCell id="zzDzum1lHBQrz0rzf7VX-4" value="" style="rounded=0;whiteSpace=wrap;html=1;" parent="1" vertex="1">
          <mxGeometry x="230" y="160" width="120" height="220" as="geometry" />
        </mxCell>
        <mxCell id="zzDzum1lHBQrz0rzf7VX-14" value="" style="rounded=0;whiteSpace=wrap;html=1;dashed=1;" parent="1" vertex="1">
          <mxGeometry x="460" y="470" width="120" height="30" as="geometry" />
        </mxCell>
        <mxCell id="zzDzum1lHBQrz0rzf7VX-15" value="" style="rounded=0;whiteSpace=wrap;html=1;dashed=1;fillColor=#d5e8d4;strokeColor=#82b366;" parent="1" vertex="1">
          <mxGeometry x="460" y="440" width="120" height="30" as="geometry" />
        </mxCell>
        <mxCell id="zzDzum1lHBQrz0rzf7VX-16" value="" style="rounded=0;whiteSpace=wrap;html=1;dashed=1;" parent="1" vertex="1">
          <mxGeometry x="460" y="410" width="120" height="30" as="geometry" />
        </mxCell>
        <mxCell id="zzDzum1lHBQrz0rzf7VX-18" value="" style="endArrow=none;dashed=1;html=1;rounded=0;exitX=1;exitY=0.5;exitDx=0;exitDy=0;entryX=0;entryY=1;entryDx=0;entryDy=0;fillColor=#d5e8d4;strokeColor=#82b366;" parent="1" target="zzDzum1lHBQrz0rzf7VX-16" edge="1">
          <mxGeometry width="50" height="50" relative="1" as="geometry">
            <mxPoint x="350" y="470" as="sourcePoint" />
            <mxPoint x="550" y="300" as="targetPoint" />
          </mxGeometry>
        </mxCell>
        <mxCell id="zzDzum1lHBQrz0rzf7VX-19" value="" style="endArrow=none;dashed=1;html=1;rounded=0;exitX=1;exitY=1;exitDx=0;exitDy=0;entryX=0;entryY=1;entryDx=0;entryDy=0;fillColor=#d5e8d4;strokeColor=#82b366;" parent="1" target="zzDzum1lHBQrz0rzf7VX-15" edge="1">
          <mxGeometry width="50" height="50" relative="1" as="geometry">
            <mxPoint x="350" y="500" as="sourcePoint" />
            <mxPoint x="470" y="450" as="targetPoint" />
          </mxGeometry>
        </mxCell>
        <mxCell id="zzDzum1lHBQrz0rzf7VX-28" value="Text" style="rounded=0;whiteSpace=wrap;html=1;fillColor=#d5e8d4;strokeColor=#82b366;" parent="1" vertex="1">
          <mxGeometry x="230" y="440" width="120" height="60" as="geometry" />
        </mxCell>
        <mxCell id="zzDzum1lHBQrz0rzf7VX-36" value="" style="endArrow=none;dashed=1;html=1;strokeWidth=1;rounded=0;exitX=0;exitY=0.5;exitDx=0;exitDy=0;entryX=1;entryY=0.5;entryDx=0;entryDy=0;" parent="1" source="zzDzum1lHBQrz0rzf7VX-28" target="zzDzum1lHBQrz0rzf7VX-28" edge="1">
          <mxGeometry width="50" height="50" relative="1" as="geometry">
            <mxPoint x="470" y="350" as="sourcePoint" />
            <mxPoint x="520" y="300" as="targetPoint" />
          </mxGeometry>
        </mxCell>
        <mxCell id="zzDzum1lHBQrz0rzf7VX-37" value="" style="rounded=0;whiteSpace=wrap;html=1;" parent="1" vertex="1">
          <mxGeometry x="230" y="380" width="120" height="60" as="geometry" />
        </mxCell>
        <mxCell id="zzDzum1lHBQrz0rzf7VX-38" value="" style="endArrow=none;dashed=1;html=1;strokeWidth=1;rounded=0;exitX=0;exitY=0.5;exitDx=0;exitDy=0;entryX=1;entryY=0.5;entryDx=0;entryDy=0;" parent="1" edge="1">
          <mxGeometry width="50" height="50" relative="1" as="geometry">
            <mxPoint x="230" y="409.5" as="sourcePoint" />
            <mxPoint x="350" y="409.5" as="targetPoint" />
          </mxGeometry>
        </mxCell>
        <mxCell id="zzDzum1lHBQrz0rzf7VX-40" value="Data" style="text;html=1;align=center;verticalAlign=middle;whiteSpace=wrap;rounded=0;" parent="1" vertex="1">
          <mxGeometry x="260" y="410" width="60" height="30" as="geometry" />
        </mxCell>
        <mxCell id="zzDzum1lHBQrz0rzf7VX-41" value="BSS" style="text;html=1;align=center;verticalAlign=middle;whiteSpace=wrap;rounded=0;" parent="1" vertex="1">
          <mxGeometry x="260" y="380" width="60" height="30" as="geometry" />
        </mxCell>
        <mxCell id="zzDzum1lHBQrz0rzf7VX-43" value="" style="rounded=0;whiteSpace=wrap;html=1;dashed=1;fillColor=#f5f5f5;fontColor=#333333;strokeColor=#666666;" parent="1" vertex="1">
          <mxGeometry x="460" y="260" width="120" height="30" as="geometry" />
        </mxCell>
        <mxCell id="zzDzum1lHBQrz0rzf7VX-44" value="" style="endArrow=none;dashed=1;html=1;rounded=0;exitX=1;exitY=0.5;exitDx=0;exitDy=0;entryX=0;entryY=0;entryDx=0;entryDy=0;fillColor=#f5f5f5;strokeColor=#666666;" parent="1" target="zzDzum1lHBQrz0rzf7VX-43" edge="1">
          <mxGeometry width="50" height="50" relative="1" as="geometry">
            <mxPoint x="350" y="440" as="sourcePoint" />
            <mxPoint x="460" y="410" as="targetPoint" />
          </mxGeometry>
        </mxCell>
        <mxCell id="zzDzum1lHBQrz0rzf7VX-46" value="" style="endArrow=none;dashed=1;html=1;rounded=0;exitX=1;exitY=0.5;exitDx=0;exitDy=0;entryX=0;entryY=1;entryDx=0;entryDy=0;fillColor=#f5f5f5;strokeColor=#666666;" parent="1" source="zzDzum1lHBQrz0rzf7VX-28" target="zzDzum1lHBQrz0rzf7VX-43" edge="1">
          <mxGeometry width="50" height="50" relative="1" as="geometry">
            <mxPoint x="360" y="450" as="sourcePoint" />
            <mxPoint x="470" y="270" as="targetPoint" />
          </mxGeometry>
        </mxCell>
        <mxCell id="zzDzum1lHBQrz0rzf7VX-47" value="" style="rounded=0;whiteSpace=wrap;html=1;" parent="1" vertex="1">
          <mxGeometry x="707" y="100" width="120" height="60" as="geometry" />
        </mxCell>
        <mxCell id="zzDzum1lHBQrz0rzf7VX-48" value="" style="rounded=0;whiteSpace=wrap;html=1;" parent="1" vertex="1">
          <mxGeometry x="707" y="160" width="120" height="220" as="geometry" />
        </mxCell>
        <mxCell id="zzDzum1lHBQrz0rzf7VX-49" value="Text" style="rounded=0;whiteSpace=wrap;html=1;" parent="1" vertex="1">
          <mxGeometry x="707" y="440" width="120" height="60" as="geometry" />
        </mxCell>
        <mxCell id="zzDzum1lHBQrz0rzf7VX-50" value="" style="endArrow=none;dashed=1;html=1;strokeWidth=1;rounded=0;exitX=0;exitY=0.5;exitDx=0;exitDy=0;entryX=1;entryY=0.5;entryDx=0;entryDy=0;" parent="1" source="zzDzum1lHBQrz0rzf7VX-49" target="zzDzum1lHBQrz0rzf7VX-49" edge="1">
          <mxGeometry width="50" height="50" relative="1" as="geometry">
            <mxPoint x="947" y="350" as="sourcePoint" />
            <mxPoint x="997" y="300" as="targetPoint" />
          </mxGeometry>
        </mxCell>
        <mxCell id="zzDzum1lHBQrz0rzf7VX-51" value="" style="rounded=0;whiteSpace=wrap;html=1;fillColor=#e1d5e7;strokeColor=#9673a6;" parent="1" vertex="1">
          <mxGeometry x="707" y="380" width="120" height="60" as="geometry" />
        </mxCell>
        <mxCell id="zzDzum1lHBQrz0rzf7VX-52" value="" style="endArrow=none;dashed=1;html=1;strokeWidth=1;rounded=0;exitX=0;exitY=0.5;exitDx=0;exitDy=0;entryX=1;entryY=0.5;entryDx=0;entryDy=0;" parent="1" edge="1">
          <mxGeometry width="50" height="50" relative="1" as="geometry">
            <mxPoint x="707" y="409.5" as="sourcePoint" />
            <mxPoint x="827" y="409.5" as="targetPoint" />
          </mxGeometry>
        </mxCell>
        <mxCell id="zzDzum1lHBQrz0rzf7VX-53" value="Data" style="text;html=1;align=center;verticalAlign=middle;whiteSpace=wrap;rounded=0;" parent="1" vertex="1">
          <mxGeometry x="737" y="410" width="60" height="30" as="geometry" />
        </mxCell>
        <mxCell id="zzDzum1lHBQrz0rzf7VX-54" value="BSS" style="text;html=1;align=center;verticalAlign=middle;whiteSpace=wrap;rounded=0;" parent="1" vertex="1">
          <mxGeometry x="737" y="380" width="60" height="30" as="geometry" />
        </mxCell>
        <mxCell id="zzDzum1lHBQrz0rzf7VX-55" value="" style="rounded=0;whiteSpace=wrap;html=1;dashed=1;fillColor=#e1d5e7;strokeColor=#9673a6;" parent="1" vertex="1">
          <mxGeometry x="460" y="340" width="120" height="30" as="geometry" />
        </mxCell>
        <mxCell id="zzDzum1lHBQrz0rzf7VX-56" value="" style="rounded=0;whiteSpace=wrap;html=1;dashed=1;fillColor=#dae8fc;strokeColor=#6c8ebf;" parent="1" vertex="1">
          <mxGeometry x="460" y="180" width="120" height="30" as="geometry" />
        </mxCell>
        <mxCell id="zzDzum1lHBQrz0rzf7VX-60" value="" style="endArrow=none;dashed=1;html=1;rounded=0;entryX=0;entryY=1;entryDx=0;entryDy=0;fillColor=#e1d5e7;strokeColor=#9673a6;" parent="1" target="zzDzum1lHBQrz0rzf7VX-51" edge="1">
          <mxGeometry width="50" height="50" relative="1" as="geometry">
            <mxPoint x="580" y="370" as="sourcePoint" />
            <mxPoint x="470" y="270" as="targetPoint" />
          </mxGeometry>
        </mxCell>
        <mxCell id="zzDzum1lHBQrz0rzf7VX-61" value="" style="endArrow=none;dashed=1;html=1;rounded=0;exitX=1;exitY=0;exitDx=0;exitDy=0;entryX=0;entryY=0.5;entryDx=0;entryDy=0;fillColor=#e1d5e7;strokeColor=#9673a6;" parent="1" source="zzDzum1lHBQrz0rzf7VX-55" target="zzDzum1lHBQrz0rzf7VX-51" edge="1">
          <mxGeometry width="50" height="50" relative="1" as="geometry">
            <mxPoint x="588" y="382" as="sourcePoint" />
            <mxPoint x="717" y="450" as="targetPoint" />
          </mxGeometry>
        </mxCell>
        <mxCell id="zzDzum1lHBQrz0rzf7VX-62" value="" style="endArrow=none;dashed=1;html=1;rounded=0;exitX=1;exitY=0.281;exitDx=0;exitDy=0;exitPerimeter=0;strokeColor=#99CCFF;" parent="1" source="zzDzum1lHBQrz0rzf7VX-42" edge="1">
          <mxGeometry width="50" height="50" relative="1" as="geometry">
            <mxPoint x="590" y="350" as="sourcePoint" />
            <mxPoint x="710" y="410" as="targetPoint" />
          </mxGeometry>
        </mxCell>
        <mxCell id="zzDzum1lHBQrz0rzf7VX-63" value="" style="endArrow=none;dashed=1;html=1;rounded=0;exitX=1;exitY=0;exitDx=0;exitDy=0;entryX=0;entryY=1;entryDx=0;entryDy=0;strokeColor=#99CCFF;" parent="1" source="zzDzum1lHBQrz0rzf7VX-56" target="zzDzum1lHBQrz0rzf7VX-48" edge="1">
          <mxGeometry width="50" height="50" relative="1" as="geometry">
            <mxPoint x="590" y="222" as="sourcePoint" />
            <mxPoint x="720" y="420" as="targetPoint" />
          </mxGeometry>
        </mxCell>
        <mxCell id="zzDzum1lHBQrz0rzf7VX-64" value="进程一" style="text;html=1;align=center;verticalAlign=middle;whiteSpace=wrap;rounded=0;" parent="1" vertex="1">
          <mxGeometry x="250" y="60" width="60" height="30" as="geometry" />
        </mxCell>
        <mxCell id="zzDzum1lHBQrz0rzf7VX-65" value="进程二" style="text;html=1;align=center;verticalAlign=middle;whiteSpace=wrap;rounded=0;" parent="1" vertex="1">
          <mxGeometry x="740" y="60" width="60" height="30" as="geometry" />
        </mxCell>
        <mxCell id="zzDzum1lHBQrz0rzf7VX-68" value="" style="strokeWidth=2;html=1;shape=mxgraph.flowchart.annotation_2;align=left;labelPosition=right;pointerEvents=1;" parent="1" vertex="1">
          <mxGeometry x="140" y="100" width="60" height="400" as="geometry" />
        </mxCell>
        <mxCell id="zzDzum1lHBQrz0rzf7VX-69" value="连续地址段&lt;div&gt;虚拟空间&lt;/div&gt;" style="text;html=1;align=center;verticalAlign=middle;resizable=0;points=[];autosize=1;strokeColor=none;fillColor=none;" parent="1" vertex="1">
          <mxGeometry x="60" y="280" width="80" height="40" as="geometry" />
        </mxCell>
        <mxCell id="zzDzum1lHBQrz0rzf7VX-70" value="物理内存" style="text;html=1;align=center;verticalAlign=middle;whiteSpace=wrap;rounded=0;" parent="1" vertex="1">
          <mxGeometry x="490" y="60" width="60" height="30" as="geometry" />
        </mxCell>
        <mxCell id="zzDzum1lHBQrz0rzf7VX-74" style="edgeStyle=none;rounded=0;orthogonalLoop=1;jettySize=auto;html=1;entryX=0.5;entryY=0;entryDx=0;entryDy=0;" parent="1" source="zzDzum1lHBQrz0rzf7VX-71" target="zzDzum1lHBQrz0rzf7VX-42" edge="1">
          <mxGeometry relative="1" as="geometry" />
        </mxCell>
        <mxCell id="zzDzum1lHBQrz0rzf7VX-71" value="mmu" style="strokeWidth=2;html=1;shape=mxgraph.flowchart.database;whiteSpace=wrap;" parent="1" vertex="1">
          <mxGeometry x="490" y="-30" width="60" height="60" as="geometry" />
        </mxCell>
        <mxCell id="zzDzum1lHBQrz0rzf7VX-72" style="edgeStyle=none;rounded=0;orthogonalLoop=1;jettySize=auto;html=1;entryX=0;entryY=0.5;entryDx=0;entryDy=0;entryPerimeter=0;" parent="1" source="zzDzum1lHBQrz0rzf7VX-5" target="zzDzum1lHBQrz0rzf7VX-71" edge="1">
          <mxGeometry relative="1" as="geometry" />
        </mxCell>
        <mxCell id="zzDzum1lHBQrz0rzf7VX-73" style="edgeStyle=none;rounded=0;orthogonalLoop=1;jettySize=auto;html=1;entryX=1;entryY=0.5;entryDx=0;entryDy=0;entryPerimeter=0;" parent="1" source="zzDzum1lHBQrz0rzf7VX-47" target="zzDzum1lHBQrz0rzf7VX-71" edge="1">
          <mxGeometry relative="1" as="geometry" />
        </mxCell>
        <mxCell id="9y9Copx7se7E2T3DfJLC-1" value="&lt;span style=&quot;color: rgba(0, 0, 0, 0); font-family: monospace; font-size: 0px; text-align: start; text-wrap-mode: nowrap;&quot;&gt;%3CmxGraphModel%3E%3Croot%3E%3CmxCell%20id%3D%220%22%2F%3E%3CmxCell%20id%3D%221%22%20parent%3D%220%22%2F%3E%3CmxCell%20id%3D%222%22%20value%3D%22%E8%BF%9B%E7%A8%8B%E4%B8%80%22%20style%3D%22text%3Bhtml%3D1%3Balign%3Dcenter%3BverticalAlign%3Dmiddle%3BwhiteSpace%3Dwrap%3Brounded%3D0%3B%22%20vertex%3D%221%22%20parent%3D%221%22%3E%3CmxGeometry%20x%3D%22250%22%20y%3D%2260%22%20width%3D%2260%22%20height%3D%2230%22%20as%3D%22geometry%22%2F%3E%3C%2FmxCell%3E%3C%2Froot%3E%3C%2FmxGraphModel%3E&lt;/span&gt;" style="rounded=0;whiteSpace=wrap;html=1;" vertex="1" parent="1">
          <mxGeometry x="174" y="720" width="236" height="60" as="geometry" />
        </mxCell>
        <mxCell id="9y9Copx7se7E2T3DfJLC-2" value="&lt;span style=&quot;color: rgba(0, 0, 0, 0); font-family: monospace; font-size: 0px; text-align: start; text-wrap-mode: nowrap;&quot;&gt;%3CmxGraphModel%3E%3Croot%3E%3CmxCell%20id%3D%220%22%2F%3E%3CmxCell%20id%3D%221%22%20parent%3D%220%22%2F%3E%3CmxCell%20id%3D%222%22%20value%3D%22%E8%BF%9B%E7%A8%8B%E4%B8%80%22%20style%3D%22text%3Bhtml%3D1%3Balign%3Dcenter%3BverticalAlign%3Dmiddle%3BwhiteSpace%3Dwrap%3Brounded%3D0%3B%22%20vertex%3D%221%22%20parent%3D%221%22%3E%3CmxGeometry%20x%3D%22250%22%20y%3D%2260%22%20width%3D%2260%22%20height%3D%2230%22%20as%3D%22geometry%22%2F%3E%3C%2FmxCell%3E%3C%2Froot%3E%3C%2FmxGraphModel%3E&lt;/span&gt;" style="rounded=0;whiteSpace=wrap;html=1;" vertex="1" parent="1">
          <mxGeometry x="170" y="800" width="240" height="60" as="geometry" />
        </mxCell>
      </root>
    </mxGraphModel>
  </diagram>
</mxfile>
